HIERARCHY
ROOT pelvis
{
	OFFSET 0.000000 0.000000 0.000000
	CHANNELS 6 Xposition Yposition Zposition Zrotation Yrotation Xrotation
	JOINT left_hip
	{
		OFFSET 0.055779 -0.080629 -0.017705
		CHANNELS 3 Zrotation Yrotation Xrotation
		JOINT left_knee
		{
			OFFSET 0.039469 -0.359247 0.009008
			CHANNELS 3 Zrotation Yrotation Xrotation
			JOINT left_ankle
			{
				OFFSET -0.013809 -0.389899 -0.036404
				CHANNELS 3 Zrotation Yrotation Xrotation
				JOINT left_foot
				{
					OFFSET 0.037897 -0.056346 0.116500
					CHANNELS 3 Zrotation Yrotation Xrotation
					End Site
					{
						OFFSET 0.000000 0.000000 0.000000
					}
				}
			}
		}
	}
	JOINT right_hip
	{
		OFFSET -0.057787 -0.088871 -0.013401
		CHANNELS 3 Zrotation Yrotation Xrotation
		JOINT right_knee
		{
			OFFSET -0.039496 -0.356943 -0.002206
			CHANNELS 3 Zrotation Yrotation Xrotation
			JOINT right_ankle
			{
				OFFSET 0.017959 -0.383749 -0.033094
				CHANNELS 3 Zrotation Yrotation Xrotation
				JOINT right_foot
				{
					OFFSET -0.031235 -0.058281 0.124713
					CHANNELS 3 Zrotation Yrotation Xrotation
					End Site
					{
						OFFSET 0.000000 0.000000 0.000000
					}
				}
			}
		}
	}
	JOINT spine1
	{
		OFFSET 0.004196 0.122659 -0.034271
		CHANNELS 3 Zrotation Yrotation Xrotation
		JOINT spine2
		{
			OFFSET 0.005122 0.143143 0.029537
			CHANNELS 3 Zrotation Yrotation Xrotation
			JOINT spine3
			{
				OFFSET -0.001923 0.057757 0.004628
				CHANNELS 3 Zrotation Yrotation Xrotation
				JOINT neck
				{
					OFFSET -0.013781 0.203940 -0.035143
					CHANNELS 3 Zrotation Yrotation Xrotation
					JOINT head
					{
						OFFSET 0.009065 0.086539 0.049216
						CHANNELS 3 Zrotation Yrotation Xrotation
						End Site
						{
							OFFSET 0.000000 0.000000 0.000000
						}
					}
				}
				JOINT left_collar
				{
					OFFSET 0.070315 0.109742 -0.020357
					CHANNELS 3 Zrotation Yrotation Xrotation
					JOINT left_shoulder
					{
						OFFSET 0.122280 0.043464 -0.020451
						CHANNELS 3 Zrotation Yrotation Xrotation
						JOINT left_elbow
						{
							OFFSET 0.245347 -0.013316 -0.020298
							CHANNELS 3 Zrotation Yrotation Xrotation
							JOINT left_wrist
							{
								OFFSET 0.251466 0.010925 -0.008411
								CHANNELS 3 Zrotation Yrotation Xrotation
								End Site
								{
									OFFSET 0.000000 0.000000 0.000000
								}
							}
						}
					}
				}
				JOINT right_collar
				{
					OFFSET -0.083386 0.108780 -0.024575
					CHANNELS 3 Zrotation Yrotation Xrotation
					JOINT right_shoulder
					{
						OFFSET -0.112806 0.044731 -0.008805
						CHANNELS 3 Zrotation Yrotation Xrotation
						JOINT right_elbow
						{
							OFFSET -0.248827 -0.010357 -0.028458
							CHANNELS 3 Zrotation Yrotation Xrotation
							JOINT right_wrist
							{
								OFFSET -0.255561 0.006434 -0.006231
								CHANNELS 3 Zrotation Yrotation Xrotation
								End Site
								{
									OFFSET 0.000000 0.000000 0.000000
								}
							}
						}
					}
				}
			}
		}
	}
}
MOTION
Frames: 10
Frame Time: 0.033333
0.313163 0.730117 -0.058953 175.605000 -40.450500 177.716000 7.053542 3.637892 -4.104194 -1.611788 -1.447521 55.516311 6.897842 35.212396 -26.720973 0.000000 0.000000 0.000000 -20.518419 -17.347972 -50.382388 -0.134468 0.440719 49.235966 -0.317113 6.413598 12.201126 0.000000 0.000000 0.000000 -12.389071 -2.931967 14.600536 0.000000 0.000000 0.000000 8.661279 -0.535667 -9.574922 -14.336014 -13.288942 17.085979 21.831791 -23.587444 -23.096763 0.000000 0.000000 0.000000 -72.126904 37.529931 56.471119 111.491232 -48.786942 -85.190445 -7.707313 7.994728 -87.896836 0.000000 0.000000 0.000000 9.258830 49.868451 -39.831153 -7.090860 11.578531 -2.373006 3.450807 6.587576 55.256851
0.319679 0.715980 -0.082482 174.538000 -37.310900 178.136000 6.525558 5.471030 -2.183200 -1.811700 -1.537926 56.074873 7.432078 37.820061 -27.345587 0.000000 0.000000 0.000000 -19.531424 -16.851428 -55.366887 -0.040516 0.582339 55.755247 0.225552 10.369201 9.267301 0.000000 0.000000 0.000000 -12.822604 -0.153127 16.447060 0.000000 0.000000 0.000000 7.120619 0.068720 -10.116107 -14.453734 -13.806084 17.442879 24.527087 -23.510794 -26.704323 0.000000 0.000000 0.000000 -74.418324 37.412398 53.683815 111.987575 -48.629758 -85.607527 -6.396721 7.838735 -78.402631 0.000000 0.000000 0.000000 6.071652 50.134486 -32.423220 -9.586939 15.293082 -3.492373 0.953379 3.797081 28.179761
0.325395 0.705164 -0.102823 173.872000 -34.242300 177.624000 7.947603 7.996859 1.263923 -1.917110 -1.621170 55.121488 7.151159 37.165586 -27.650508 0.000000 0.000000 0.000000 -16.859836 -19.070696 -58.938814 0.104939 0.702593 60.300051 0.651513 12.376190 8.558723 0.000000 0.000000 0.000000 -12.533919 2.566832 19.096101 0.000000 0.000000 0.000000 6.346138 0.663003 -10.348200 -13.575485 -12.768992 16.760059 21.997201 -21.355613 -27.914688 0.000000 0.000000 0.000000 -76.522488 33.310030 53.575080 111.322259 -48.839731 -85.048369 -5.348624 7.550548 -70.586435 0.000000 0.000000 0.000000 2.522302 49.599450 -36.289483 -10.670890 16.837559 -4.018509 1.753472 5.008031 38.573532
0.338541 0.705261 -0.117214 176.475000 -35.573500 178.616000 12.851982 7.766861 -0.260599 -1.766753 -1.594230 53.207344 6.490200 34.289090 -25.963945 0.000000 0.000000 0.000000 -12.330575 -22.032217 -61.132501 0.099731 0.707094 60.966660 0.562546 11.730247 6.655209 0.000000 0.000000 0.000000 -9.347424 1.825153 18.117210 0.000000 0.000000 0.000000 4.944875 0.537336 -10.239755 -10.486395 -8.657798 12.856667 14.566652 -14.294393 -22.740619 0.000000 0.000000 0.000000 -75.403686 29.602250 54.979506 109.375454 -49.419557 -83.406133 -5.171964 7.486496 -69.236750 0.000000 0.000000 0.000000 4.841075 48.921335 -28.995198 -17.741118 25.845268 -7.960755 0.285194 2.123459 15.297161
0.351990 0.708219 -0.126414 178.112000 -40.621100 179.484000 16.483006 4.745446 -3.366112 -1.597787 -1.536083 51.634302 5.786737 31.394370 -24.320482 0.000000 0.000000 0.000000 -11.059997 -24.123941 -61.236271 -0.015432 0.669034 61.733864 0.044123 8.520682 5.098552 0.000000 0.000000 0.000000 -6.199867 1.696802 18.822664 0.000000 0.000000 0.000000 2.768415 0.444515 -10.655624 -6.240900 -2.844105 10.531120 5.750486 -4.131765 -21.874172 0.000000 0.000000 0.000000 -72.826559 23.391592 58.344938 108.960493 -49.536574 -83.055132 -4.724112 7.302504 -65.757422 0.000000 0.000000 0.000000 10.201781 43.437112 -16.629429 -33.871827 40.067242 -19.244405 0.011056 0.421807 3.002741
0.368613 0.715576 -0.133284 178.075000 -46.654800 -179.227000 18.598455 2.023755 -7.526992 -1.420760 -1.451773 50.445362 5.054842 28.255228 -21.788365 0.000000 0.000000 0.000000 -13.029243 -21.848377 -59.595272 -0.232645 0.585559 61.915707 -1.116816 1.147390 5.238153 0.000000 0.000000 0.000000 -3.875811 4.463571 20.685902 0.000000 0.000000 0.000000 0.580732 1.070507 -10.731895 -1.687401 3.277702 10.820414 -4.421578 5.843637 -23.177110 0.000000 0.000000 0.000000 -71.526485 12.204454 59.618756 114.000556 -47.956244 -87.292397 -3.969398 6.916151 -59.665074 0.000000 0.000000 0.000000 15.007282 34.609899 -6.475132 -60.161527 50.804519 -40.820334 0.114744 -1.354376 -9.684752
0.392272 0.726111 -0.141701 178.388000 -54.204800 -177.869000 21.536435 0.615152 -14.602960 -1.208976 -1.305729 50.796736 4.116323 22.931918 -17.564117 0.000000 0.000000 0.000000 -15.975655 -14.644962 -57.260598 -0.589745 0.436178 61.578968 -3.158941 -11.473039 8.573524 0.000000 0.000000 0.000000 -2.206610 7.151271 22.388381 0.000000 0.000000 0.000000 -0.684658 1.755282 -10.939797 0.947203 7.874599 11.786818 -10.088375 13.833976 -23.668994 0.000000 0.000000 0.000000 -72.773841 -1.158204 58.561243 120.757676 -45.237607 -92.859202 -2.548367 5.863757 -46.949566 0.000000 0.000000 0.000000 20.080313 28.430184 1.345596 -87.906062 52.917403 -64.906983 0.913362 -3.721600 -27.569465
0.418955 0.736641 -0.152980 176.918000 -64.876900 -174.069000 23.753214 0.992370 -26.242537 -0.832715 -1.046770 53.028200 2.963254 14.188718 -12.510857 0.000000 0.000000 0.000000 -18.875422 -7.503907 -55.572599 -0.728596 0.393370 62.071747 -4.094530 -14.973867 5.759364 0.000000 0.000000 0.000000 -2.337693 8.293317 22.772294 0.000000 0.000000 0.000000 -1.520273 1.994966 -11.342166 2.962196 9.825308 12.644767 -12.781997 17.118704 -25.096220 0.000000 0.000000 0.000000 -74.097594 -15.964516 58.977254 126.327027 -42.386202 -97.315928 -1.428191 4.571991 -34.679651 0.000000 0.000000 0.000000 27.249718 25.130666 6.987795 -108.379689 49.696723 -82.562976 1.985935 -5.285241 -41.164541
0.440991 0.743830 -0.171414 178.652000 -78.584500 -173.732000 24.899545 5.789256 -40.318941 -0.325555 -0.766781 56.455538 1.766406 4.348805 -5.887982 0.000000 0.000000 0.000000 -18.812738 -2.459451 -52.872460 -0.530262 0.494812 63.112213 -4.074182 -14.160507 -2.140902 0.000000 0.000000 0.000000 0.037232 7.520397 22.344327 0.000000 0.000000 0.000000 -2.408473 1.836438 -10.980210 4.107885 10.522659 13.571997 -14.503833 18.083853 -26.608561 0.000000 0.000000 0.000000 -78.404486 -32.037065 62.948375 128.945156 -40.824543 -99.358752 -1.196653 4.218800 -31.659282 0.000000 0.000000 0.000000 34.947502 24.841922 10.573866 -121.354462 44.960440 -93.343175 2.347892 -5.670808 -44.954782
0.449811 0.742458 -0.194038 -23.857000 -86.803600 28.945000 22.283267 11.778706 -53.348643 0.020113 -0.676280 62.902199 0.675221 -3.354301 -2.523646 0.000000 0.000000 0.000000 -16.303937 -1.113193 -48.209097 -0.193070 0.651825 65.033162 -4.899246 -19.631212 -6.911070 0.000000 0.000000 0.000000 2.854441 6.689464 21.743686 0.000000 0.000000 0.000000 -1.934021 1.777730 -10.291507 4.810990 10.698298 13.788476 -15.173596 18.360346 -25.692288 0.000000 0.000000 0.000000 -90.048970 -44.748779 73.372469 129.056302 -40.754370 -99.444880 -1.242701 4.292370 -32.279759 0.000000 0.000000 0.000000 41.713920 27.202405 13.969121 -128.966371 40.811297 -99.375184 2.718150 -6.017051 -48.589960
